<?xml version="1.0" encoding="utf-8"?>
<!-- Generator: Adobe Illustrator 17.0.0, SVG Export Plug-In . SVG Version: 6.00 Build 0)  -->
<!DOCTYPE svg PUBLIC "-//W3C//DTD SVG 1.1//EN" "http://www.w3.org/Graphics/SVG/1.1/DTD/svg11.dtd">
<svg version="1.1" id="Layer_1" xmlns="http://www.w3.org/2000/svg" xmlns:xlink="http://www.w3.org/1999/xlink" x="0px" y="0px"
	 width="600px" height="600px" viewBox="0 0 600 600" enable-background="new 0 0 600 600" xml:space="preserve">
<g>
	<g>
		<path fill="#070606" d="M528.569,282.964c-0.447-8.892-1.743-17.696-3.501-26.418c-0.993-4.93-2.164-9.83-3.437-14.696
			c-1.2-4.589-2.44-9.185-4.02-13.652c-2.19-6.192-4.443-12.389-7.163-18.359c-3.446-7.564-7.158-15.027-11.168-22.307
			c-5.453-9.9-11.761-19.277-19.007-27.974c-4.728-5.674-9.466-11.36-14.521-16.737c-7.043-7.492-14.597-14.478-22.847-20.648
			c-5.913-4.423-11.847-8.836-17.983-12.939c-9.158-6.123-18.798-11.443-28.902-15.85c-6.242-2.723-12.539-5.362-18.954-7.635
			c-6.492-2.301-13.125-4.231-19.764-6.08c-4.175-1.162-8.452-2.01-12.725-2.758c-6.274-1.099-12.564-2.172-18.888-2.904
			c-5.711-0.66-11.472-0.961-17.22-1.218c-9.01-0.402-18.03-0.268-27.003,0.627c-7.184,0.716-14.35,1.689-21.487,2.785
			c-8.716,1.338-17.292,3.426-25.688,6.076c-7.495,2.366-14.884,5.107-22.208,7.969c-7.943,3.104-15.577,6.911-23.021,11.086
			c-9.436,5.292-18.48,11.169-27.115,17.698c-7.724,5.841-15.03,12.153-21.969,18.891c-7.235,7.025-14.038,14.458-20.067,22.544
			c-4.608,6.18-9.106,12.458-13.34,18.899c-5.446,8.284-10.058,17.052-14.211,26.062c-3.453,7.492-6.513,15.139-9.089,22.967
			c-1.634,4.965-2.996,10.023-4.383,15.066c-0.882,3.207-1.722,6.437-2.34,9.702c-1.048,5.539-2.018,11.098-2.81,16.679
			c-0.666,4.695-1.14,9.424-1.5,14.153c-0.286,3.757-0.262,7.538-0.406,11.307c-0.014,0.362-0.241,0.716-0.368,1.074
			c0,2.438,0,4.877,0,7.315c0.128,0.494,0.343,0.983,0.371,1.483c0.278,4.977,0.476,9.958,0.791,14.932
			c0.553,8.726,1.793,17.366,3.764,25.879c1.619,6.991,3.186,14.017,5.303,20.865c2.237,7.236,4.838,14.388,7.762,21.375
			c2.784,6.652,6.024,13.131,9.359,19.531c5.208,9.993,11.421,19.37,18.136,28.418c5.236,7.055,10.942,13.722,16.947,20.113
			c3.998,4.255,8.354,8.178,12.607,12.19c5.828,5.499,12.101,10.469,18.567,15.185c7.418,5.41,15.151,10.332,23.152,14.855
			c9.877,5.584,20.127,10.35,30.73,14.336c5.534,2.08,11.171,3.92,16.844,5.588c5.598,1.646,11.251,3.187,16.969,4.323
			c7.079,1.406,14.246,2.385,21.386,3.471c2.525,0.384,5.078,0.634,7.628,0.784c4.29,0.252,8.586,0.452,12.883,0.533
			c5.027,0.096,10.063,0.194,15.084,0.008c4.979-0.185,9.954-0.621,14.912-1.133c4.923-0.508,9.856-1.063,14.725-1.934
			c5.663-1.013,11.286-2.285,16.878-3.645c4.844-1.178,9.677-2.461,14.411-4.013c5.543-1.818,11.081-3.733,16.428-6.05
			c7.585-3.288,15.098-6.78,22.451-10.558c8.234-4.231,16.017-9.253,23.573-14.618c9.92-7.045,19.243-14.802,27.943-23.301
			c2.671-2.609,5.309-5.27,7.753-8.088c4.974-5.734,9.998-11.441,14.648-17.434c6.402-8.252,12.002-17.059,17.116-26.181
			c6.07-10.827,11.274-22.043,15.348-33.757c2.237-6.431,4.273-12.948,6.02-19.528c1.613-6.073,2.879-12.252,3.998-18.439
			c0.909-5.025,1.52-10.116,1.999-15.202c0.578-6.134,1.153-12.292,1.224-18.445C529.258,297.811,528.941,290.379,528.569,282.964z"
			/>
	</g>
	<path fill="#E8231F" d="M506.005,212.421c-1.035,0-1.989,0.051-2.937-0.008c-6.113-0.381-12.219-0.938-18.338-1.146
		c-7.952-0.271-15.918-0.514-23.867-0.321c-7.98,0.194-15.957,0.821-23.917,1.479c-5.861,0.484-11.736,1.069-17.526,2.065
		c-8.071,1.388-16.112,3.02-24.08,4.91c-3.95,0.937-7.702,2.702-11.568,4.022c-0.337,0.115-1.012-0.171-1.264-0.485
		c-3.929-4.902-8.333-9.343-13.18-13.316c-6.085-4.988-12.715-9.114-19.914-12.351c-6.97-3.134-14.185-5.422-21.728-6.562
		c-3.803-0.575-7.66-0.885-11.504-1.071c-6.125-0.297-12.221,0.085-18.279,1.158c-14.564,2.58-27.652,8.462-39.297,17.532
		c-10.17,7.922-18.209,17.644-24.272,29.033c-2.969,5.577-5.441,11.354-7.154,17.416c-1.145,4.052-1.887,8.221-2.717,12.356
		c-0.158,0.788-0.501,1.118-1.175,1.318c-3.304,0.983-6.624,1.918-9.905,2.974c-5.44,1.751-10.883,3.499-16.27,5.402
		c-5.161,1.823-10.278,3.781-15.371,5.789c-10.126,3.991-19.995,8.559-29.69,13.505c-9.269,4.728-18.335,9.831-26.979,15.614
		c-6.407,4.286-12.606,8.893-18.78,13.516c-7.398,5.539-14.1,11.87-20.37,18.655c-1.019,1.103-1.964,2.274-2.959,3.398
		c-0.244,0.276-0.555,0.492-1.06,0.931c-0.344-1.695-0.634-3.104-0.917-4.514c-1.713-8.564-2.995-17.19-3.548-25.911
		c-0.282-4.449-0.447-8.906-0.68-13.359c-0.414-7.882,0.223-15.722,0.814-23.572c0.69-9.171,2.119-18.227,4.014-27.209
		c2.039-9.663,4.743-19.15,8.099-28.44c4.673-12.934,10.498-25.338,17.467-37.189c5.255-8.936,11.001-17.556,17.62-25.547
		c4.192-5.062,8.449-10.089,12.955-14.869c4.451-4.721,9.086-9.299,13.932-13.612c12.206-10.864,25.433-20.342,39.81-28.144
		c5.421-2.942,10.895-5.821,16.522-8.333c6.065-2.708,12.274-5.132,18.539-7.346c5.806-2.051,11.728-3.813,17.673-5.429
		c8.468-2.302,17.094-3.929,25.791-5.077c5.223-0.689,10.487-1.169,15.749-1.433c6.968-0.35,13.96-0.694,20.926-0.491
		c7.204,0.21,14.415,0.86,21.574,1.722c6.761,0.815,13.513,1.903,20.168,3.338c6.653,1.434,13.273,3.164,19.74,5.277
		c7.506,2.452,14.927,5.234,22.211,8.286c10.461,4.383,20.402,9.816,29.991,15.887c9.628,6.096,18.756,12.867,27.345,20.345
		c7.36,6.408,14.264,13.3,20.75,20.592c11.548,12.983,21.448,27.139,29.615,42.475c2.782,5.226,5.217,10.637,7.8,15.968
		C505.96,211.848,505.949,212.1,506.005,212.421z"/>
	<path fill="#FFFFFF" d="M311.118,522.511c-3.988,0.072-8.495,0.351-12.985,0.19c-6.886-0.247-13.772-0.672-20.637-1.261
		c-5.05-0.433-10.082-1.156-15.094-1.929c-3.526-0.544-7.044-1.237-10.497-2.129c-7.458-1.926-14.966-3.732-22.275-6.133
		c-6.884-2.262-13.577-5.127-20.283-7.901c-10.264-4.246-19.984-9.58-29.257-15.659c-6.41-4.202-12.579-8.781-18.739-13.349
		c-7.224-5.356-13.828-11.452-20.143-17.837c-10.193-10.306-19.334-21.48-27.365-33.567c-4.66-7.013-8.868-14.278-12.821-21.703
		c-0.488-0.917-0.329-1.367,0.476-1.99c10.508-8.138,21.333-15.839,32.531-22.984c8.551-5.456,17.202-10.779,26.028-15.776
		c9.635-5.455,19.43-10.649,29.328-15.612c8.083-4.053,16.402-7.637,24.65-11.355c4.253-1.917,8.571-3.692,12.875-5.492
		c2.168-0.906,4.382-1.703,6.557-2.596c0.824-0.338,0.97,0.28,1.26,0.737c2.176,3.423,4.22,6.94,6.552,10.254
		c4.632,6.583,10.225,12.282,16.49,17.339c7.366,5.944,15.49,10.586,24.319,13.908c8.086,3.042,16.449,5.026,25.14,5.323
		c2.92,0.099,5.846,0.285,8.762,0.203c6.342-0.18,12.649-0.795,18.747-2.662c4.569-1.399,9.227-2.66,13.572-4.597
		c4.76-2.122,9.342-4.736,13.745-7.538c3.577-2.277,6.855-5.054,10.121-7.782c4.187-3.497,7.802-7.568,11.158-11.864
		c4.164-5.331,7.716-11.041,10.622-17.155c2.392-5.033,4.391-10.219,5.791-15.606c1.451-5.58,2.639-11.223,2.832-17.023
		c0.104-3.117,0.352-6.234,0.339-9.35c-0.012-2.751-0.224-5.509-0.499-8.248c-0.108-1.07,0.285-1.496,1.18-1.71
		c2.953-0.705,5.888-1.514,8.869-2.072c4.265-0.799,8.552-1.51,12.854-2.08c5.108-0.677,10.238-1.184,15.363-1.728
		c3.872-0.411,7.745-0.85,11.628-1.124c6.876-0.484,13.759-0.893,20.643-1.257c6.235-0.329,12.473-0.642,18.713-0.809
		c9.292-0.248,18.588-0.349,27.881-0.549c1.015-0.022,1.239,0.512,1.345,1.317c0.73,5.511,1.499,11.017,2.196,16.532
		c1.138,8.999,1.29,18.053,1.092,27.098c-0.133,6.07-0.624,12.142-1.209,18.188c-0.507,5.249-1.238,10.486-2.117,15.687
		c-0.756,4.475-1.757,8.917-2.841,13.327c-1.209,4.923-2.515,9.829-4,14.675c-1.271,4.146-2.671,8.273-4.34,12.272
		c-2.936,7.035-5.9,14.074-9.254,20.916c-5.336,10.886-11.777,21.126-18.949,30.914c-7.389,10.085-15.554,19.481-24.499,28.205
		c-7.982,7.785-16.514,14.914-25.564,21.426c-10.404,7.486-21.358,14.061-32.895,19.632c-4.925,2.378-9.91,4.683-15.025,6.604
		c-6.941,2.606-13.982,4.977-21.076,7.133c-5.425,1.649-10.947,3.092-16.52,4.118c-7.775,1.431-15.628,2.462-23.468,3.512
		C318.853,522.075,315.233,522.191,311.118,522.511z M317.039,335.321c28.307-1.534,55.8-25.605,54.835-60.305
		c-0.844-30.326-25.893-56.449-58.404-56.43c-32.147,0.02-58.119,26.161-58.215,58.251
		C254.969,308.837,281.998,337.22,317.039,335.321z M343.691,248.939c4.18,5.232,6.917,11.197,8.082,17.782
		c2.682,15.162-0.908,28.559-11.925,39.555c-5.877,5.866-13.039,9.482-21.386,10.421c-15.355,1.727-27.321-4.163-36.285-16.469
		c-3.835-5.264-6.027-11.24-7.088-17.681c-1.265-7.679-0.6-15.188,2.124-22.403c4.134-10.952,11.527-19.032,22.418-23.591
		c4.398-1.841,9.059-2.818,13.907-2.692C326.004,234.043,335.972,239.277,343.691,248.939z M347.101,261.498
		c-3.181-8.283-8.286-15.05-16.049-19.585c-9.533-5.569-19.534-6.543-29.822-2.494c-10.212,4.019-17.012,11.526-20.967,21.657
		c-2.044,5.237-2.855,10.687-2.565,16.33c0.198,3.849,0.822,7.597,2.078,11.216c2.085,6.002,5.388,11.25,10.032,15.635
		c5.91,5.581,12.926,8.863,20.978,9.613c7.92,0.737,15.306-1.32,21.809-5.825c11.316-7.84,16.583-18.97,16.939-30.294
		C349.489,270.644,348.749,265.787,347.101,261.498z"/>
	<path fill="#A19E9E" d="M523.328,319.316c-0.153,0.607-0.297,1.218-0.457,1.823c-1.525,5.743-3.303,11.433-5.255,17.047
		c-3.556,10.225-8.099,20.016-13.398,29.468c-4.464,7.963-9.353,15.651-14.941,22.854c-4.059,5.232-8.445,10.214-12.787,15.219
		c-2.134,2.46-4.437,4.783-6.768,7.06c-7.595,7.419-15.733,14.191-24.393,20.341c-6.596,4.684-13.39,9.068-20.578,12.761
		c-6.418,3.298-12.977,6.346-19.598,9.216c-4.668,2.023-9.502,3.694-14.341,5.281c-4.133,1.355-8.352,2.475-12.581,3.503
		c-4.881,1.187-9.79,2.297-14.733,3.182c-4.25,0.76-8.556,1.244-12.854,1.688c-4.328,0.447-8.671,0.828-13.017,0.989
		c-4.384,0.163-8.779,0.076-13.168-0.007c-3.75-0.071-7.501-0.246-11.246-0.466c-2.226-0.131-4.455-0.349-6.659-0.684
		c-6.233-0.949-12.489-1.802-18.669-3.03c-4.992-0.991-9.926-2.337-14.814-3.773c-4.952-1.456-9.873-3.062-14.703-4.878
		c-9.257-3.479-18.204-7.64-26.826-12.514c-6.984-3.948-13.735-8.245-20.211-12.968c-5.645-4.117-11.121-8.455-16.208-13.255
		c-3.712-3.502-7.515-6.927-11.005-10.642c-5.242-5.579-10.223-11.4-14.794-17.558c-5.862-7.898-11.285-16.084-15.832-24.807
		c-0.118-0.226-0.233-0.455-0.35-0.681c-6.445,3.801-12.806,7.75-19.113,11.774c-11.199,7.145-22.023,14.845-32.531,22.984
		c-0.805,0.623-0.965,1.073-0.476,1.99c3.954,7.425,8.161,14.69,12.821,21.703c8.031,12.086,17.172,23.261,27.365,33.567
		c6.315,6.385,12.919,12.481,20.143,17.837c6.16,4.568,12.33,9.147,18.739,13.349c9.273,6.079,18.992,11.412,29.257,15.659
		c6.705,2.774,13.399,5.639,20.283,7.901c7.309,2.401,14.817,4.207,22.275,6.133c3.453,0.892,6.971,1.585,10.497,2.128
		c5.012,0.773,10.044,1.496,15.094,1.929c6.865,0.589,13.751,1.014,20.637,1.261c4.491,0.161,8.997-0.117,12.985-0.19
		c4.114-0.32,7.735-0.436,11.306-0.914c7.84-1.05,15.693-2.081,23.468-3.512c5.573-1.026,11.095-2.469,16.52-4.118
		c7.094-2.156,14.135-4.527,21.076-7.133c5.115-1.92,10.1-4.226,15.025-6.604c11.538-5.571,22.492-12.146,32.895-19.632
		c9.05-6.512,17.582-13.641,25.564-21.426c8.945-8.724,17.109-18.121,24.499-28.205c7.172-9.788,13.613-20.028,18.949-30.914
		c3.353-6.841,6.318-13.881,9.254-20.916c1.669-3.999,3.069-8.126,4.34-12.272c1.485-4.846,2.791-9.752,4-14.675
		c1.083-4.41,2.084-8.852,2.841-13.327c0.879-5.201,1.61-10.438,2.117-15.687C523.098,321.89,523.214,320.603,523.328,319.316z"/>
	<path fill="#FFFFFF" d="M183.304,208.85c-19.306,19.577-46.438,24.125-60.601,10.158c-14.163-13.967-9.994-41.16,9.312-60.737
		c19.306-19.577,46.438-24.125,60.601-10.158C206.78,162.08,202.611,189.273,183.304,208.85z"/>
</g>
</svg>
